<?xml version="1.0" encoding="UTF-8" standalone="no"?> <svg width="512" height="512" viewBox="0 0 512 512" fill="none" xmlns="http://www.w3.org/2000/svg">
<path d="M335.292 488H311.292C309.508 488 307.775 487.403 306.368 486.305C304.962 485.207 303.963 483.671 303.531 481.94L279.531 385.94C279.276 384.921 279.224 383.861 279.379 382.822C279.534 381.783 279.892 380.784 280.432 379.883C280.973 378.982 281.686 378.197 282.53 377.572C283.374 376.946 284.333 376.493 285.352 376.238C286.372 375.984 287.431 375.932 288.47 376.087C289.509 376.241 290.508 376.599 291.409 377.14C292.31 377.68 293.095 378.393 293.721 379.237C294.346 380.081 294.799 381.041 295.054 382.06L317.539 472H335.292C337.413 472 339.448 472.843 340.949 474.343C342.449 475.843 343.292 477.878 343.292 480C343.292 482.122 342.449 484.156 340.949 485.657C339.448 487.157 337.413 488 335.292 488Z" fill="#A86E09"/>
<path d="M384 488H360C358.216 488 356.483 487.404 355.077 486.306C353.67 485.208 352.672 483.671 352.239 481.94L326.8 380.183C326.285 378.125 326.609 375.946 327.701 374.127C328.793 372.307 330.562 370.996 332.621 370.481C334.679 369.966 336.858 370.291 338.678 371.382C340.497 372.474 341.808 374.244 342.323 376.302L366.246 472H384C386.122 472 388.157 472.843 389.657 474.343C391.157 475.844 392 477.878 392 480C392 482.122 391.157 484.157 389.657 485.657C388.157 487.157 386.122 488 384 488Z" fill="#A86E09"/>
<path d="M139.646 280H24V284.686C24.0001 291.93 26.8777 298.878 32 304C37.1225 309.122 44.0699 312 51.314 312H179.646L139.646 280Z" fill="#D78E0C"/>
<path d="M179.646 312H48V316.686C48.0001 323.93 50.8777 330.878 56 336V336C61.1225 341.122 68.0699 344 75.314 344H211.646L179.646 312Z" fill="#C7830B"/>
<path d="M211.646 344H72V348.686C72.0001 355.93 74.8777 362.878 80 368V368C85.1225 373.122 92.0699 376 99.314 376H251.646L211.646 344Z" fill="#A86E09"/>
<path d="M355.363 212.479L351.293 208V162.656C351.293 151.343 355.787 140.493 363.787 132.494C371.786 124.494 382.636 120 393.949 120H397.624C403.226 120 408.772 121.103 413.948 123.247C419.123 125.391 423.825 128.533 427.786 132.494L446.493 151.2C446.493 151.2 447.293 130.723 447.293 128C447.293 111.026 440.55 94.7475 428.548 82.7452C416.545 70.7428 400.267 64 383.293 64C366.319 64 350.04 70.7428 338.038 82.7452C326.036 94.7475 319.293 111.026 319.293 128V128.177C319.33 132.921 317.781 137.542 314.891 141.305C312.002 145.068 307.939 147.758 303.346 148.948C300.722 149.626 298.11 150.355 295.51 151.135C258.7 162.178 225.505 182.848 199.355 211.01L135.293 280L204.625 348.392C217.598 361.185 233.018 371.23 249.962 377.926C266.907 384.622 285.028 387.832 303.242 387.363L305.058 387.317C324.074 386.838 342.733 382.052 359.632 373.319C376.531 364.586 391.229 352.134 402.62 336.9L403.582 335.615C422.877 309.883 435.528 279.789 440.412 248H435.646C420.528 248 405.576 244.84 391.751 238.723C377.925 232.606 365.531 223.667 355.363 212.479V212.479Z" fill="#D5515E"/>
<path d="M243.65 248C243.65 250.122 242.807 252.157 241.307 253.657C239.807 255.157 237.772 256 235.65 256H157.29L166.81 245.61C168.56 243.7 170.347 241.83 172.17 240H235.65C237.772 240 239.807 240.843 241.307 242.343C242.807 243.843 243.65 245.878 243.65 248Z" fill="#C34A56"/>
<path d="M272.48 216C272.48 218.122 271.637 220.157 270.137 221.657C268.637 223.157 266.602 224 264.48 224H190.25C197.896 218.056 205.986 212.707 214.45 208H264.48C266.602 208 268.637 208.843 270.137 210.343C271.637 211.843 272.48 213.878 272.48 216Z" fill="#C34A56"/>
<path d="M446.493 151.2L427.786 132.494C423.825 128.533 419.123 125.391 413.948 123.247C408.772 121.103 403.226 120 397.624 120H393.949C382.636 120 371.786 124.494 363.787 132.494C355.787 140.493 351.293 151.343 351.293 162.656V208L355.363 212.479C365.531 223.667 377.925 232.606 391.751 238.723C405.576 244.84 420.528 248 435.646 248H440.412C441.4 241.578 442.07 235.099 442.421 228.564L446.493 151.2Z" fill="#DCDBD6"/>
<path d="M483.84 147.95L480.18 148.87C471.885 150.939 464.01 154.423 456.9 159.17L445.68 166.65L446.49 151.2C446.49 151.2 447.29 130.72 447.29 128C447.291 125.802 447.181 123.606 446.96 121.42L484.67 137.58C485.726 138.033 486.613 138.805 487.207 139.789C487.801 140.773 488.071 141.918 487.979 143.063C487.887 144.208 487.439 145.296 486.696 146.173C485.954 147.049 484.955 147.671 483.84 147.95V147.95Z" fill="#F7BA61"/>
<path d="M391.293 136C400.13 136 407.293 128.837 407.293 120C407.293 111.163 400.13 104 391.293 104C382.456 104 375.293 111.163 375.293 120C375.293 128.837 382.456 136 391.293 136Z" fill="#E6E5E0"/>
<path d="M391.293 127.129C395.23 127.129 398.422 123.937 398.422 120C398.422 116.063 395.23 112.871 391.293 112.871C387.356 112.871 384.164 116.063 384.164 120C384.164 123.937 387.356 127.129 391.293 127.129Z" fill="#6A6C65"/>
<path d="M387.646 288C385.524 288 383.489 287.157 381.989 285.657C380.489 284.157 379.646 282.122 379.646 280V272C379.646 269.878 380.489 267.843 381.989 266.343C383.489 264.843 385.524 264 387.646 264C389.768 264 391.803 264.843 393.303 266.343C394.803 267.843 395.646 269.878 395.646 272V280C395.646 282.122 394.803 284.157 393.303 285.657C391.803 287.157 389.768 288 387.646 288Z" fill="#A8404A"/>
<path d="M355.646 296C353.524 296 351.489 295.157 349.989 293.657C348.489 292.157 347.646 290.122 347.646 288V280C347.646 277.878 348.489 275.843 349.989 274.343C351.489 272.843 353.524 272 355.646 272C357.768 272 359.803 272.843 361.303 274.343C362.803 275.843 363.646 277.878 363.646 280V288C363.646 290.122 362.803 292.157 361.303 293.657C359.803 295.157 357.768 296 355.646 296Z" fill="#A8404A"/>
<path d="M379.646 328C377.524 328 375.489 327.157 373.989 325.657C372.489 324.157 371.646 322.122 371.646 320V312C371.646 309.878 372.489 307.843 373.989 306.343C375.489 304.843 377.524 304 379.646 304C381.768 304 383.803 304.843 385.303 306.343C386.803 307.843 387.646 309.878 387.646 312V320C387.646 322.122 386.803 324.157 385.303 325.657C383.803 327.157 381.768 328 379.646 328Z" fill="#A8404A"/>
<path d="M232 320H216C213.878 320 211.843 319.157 210.343 317.657C208.843 316.157 208 314.122 208 312C208 309.878 208.843 307.843 210.343 306.343C211.843 304.843 213.878 304 216 304H232C234.122 304 236.157 304.843 237.657 306.343C239.157 307.843 240 309.878 240 312C240 314.122 239.157 316.157 237.657 317.657C236.157 319.157 234.122 320 232 320Z" fill="#C34A56"/>
<path d="M264 344H248C245.878 344 243.843 343.157 242.343 341.657C240.843 340.157 240 338.122 240 336C240 333.878 240.843 331.843 242.343 330.343C243.843 328.843 245.878 328 248 328H264C266.122 328 268.157 328.843 269.657 330.343C271.157 331.843 272 333.878 272 336C272 338.122 271.157 340.157 269.657 341.657C268.157 343.157 266.122 344 264 344Z" fill="#C34A56"/>
<path d="M307.646 184C307.646 201.527 303.792 218.84 296.358 234.713C288.924 250.585 278.091 264.629 264.626 275.85L259.293 280H284.633C295.481 280 306.196 277.615 316.02 273.014C325.844 268.412 334.536 261.708 341.481 253.374L342.141 252.582C353.224 239.283 359.293 222.519 359.293 205.208V184H307.646Z" fill="#D78E0C"/>
<path d="M307.646 184H306.874C280.533 184 254.479 189.477 230.368 200.084C206.257 210.69 184.614 226.195 166.815 245.612L135.293 280H259.293L264.626 275.85C278.091 264.629 288.924 250.585 296.358 234.713C303.792 218.84 307.646 201.527 307.646 184V184Z" fill="#C34A56"/>
<path d="M243.65 248C243.65 250.122 242.807 252.157 241.307 253.657C239.807 255.157 237.772 256 235.65 256H157.29L166.81 245.61C168.56 243.7 170.347 241.83 172.17 240H235.65C237.772 240 239.807 240.843 241.307 242.343C242.807 243.843 243.65 245.878 243.65 248Z" fill="#A8404A"/>
<path d="M272.48 216C272.48 218.122 271.637 220.157 270.137 221.657C268.637 223.157 266.602 224 264.48 224H190.25C197.896 218.056 205.986 212.707 214.45 208H264.48C266.602 208 268.637 208.843 270.137 210.343C271.637 211.843 272.48 213.878 272.48 216Z" fill="#A8404A"/>
</svg>
