<?xml version="1.0" encoding="UTF-8" standalone="no"?> <svg width="512" height="512" viewBox="0 0 512 512" fill="none" xmlns="http://www.w3.org/2000/svg">
<path d="M464 355.936H408L360 395.936H440L446.139 445.048C447.202 453.553 454.432 459.936 463.004 459.936C472.391 459.936 480 452.326 480 442.939V371.936C480 363.099 472.837 355.936 464 355.936Z" fill="#AF2A00"/>
<path d="M48 355.936H104L152 395.936H72L65.861 445.048C64.7978 453.553 57.5677 459.936 48.9961 459.936C39.6094 459.936 32 452.326 32 442.939V371.936C32 363.099 39.1634 355.936 48 355.936Z" fill="#FF4242"/>
<path d="M424 307.936C424 369.791 348.784 419.936 256 419.936C163.216 419.936 88 369.791 88 307.936C88 246.08 163.216 195.936 256 195.936C348.784 195.936 424 246.08 424 307.936Z" fill="#AF2A00"/>
<path d="M392 295.936C392 351.164 323.947 395.936 240 395.936C156.053 395.936 88 351.164 88 295.936C88 240.707 156.053 195.936 240 195.936C323.947 195.936 392 240.707 392 295.936Z" fill="#FF4242"/>
<path fill-rule="evenodd" clip-rule="evenodd" d="M158.655 255.498C161.105 259.174 160.112 264.141 156.436 266.592C146.129 273.463 139.112 283.893 135.588 294.465C134.191 298.657 129.66 300.922 125.468 299.525C121.277 298.128 119.012 293.597 120.409 289.406C124.885 275.978 133.868 262.408 147.561 253.279C151.237 250.828 156.204 251.822 158.655 255.498Z" fill="white"/>
<path d="M364.629 172.752C314.086 159.03 280.432 120.228 289.461 86.0865C298.489 51.9446 340.941 32.7524 392.819 50.9329C415.769 58.9754 446.095 78.8878 463.88 114.933C483.616 154.933 497.612 252.246 428.348 302.933L412.557 262.933C440.644 243.96 429.926 197.386 420.78 175.701C403.893 178.858 384.434 178.129 364.629 172.752Z" fill="#AF2A00"/>
<path d="M364.629 172.752C314.086 159.03 280.432 120.228 289.461 86.0863C298.49 51.9445 320.123 37.7553 372.001 55.9359C394.95 63.9783 422.215 83.89 440 119.936C459.736 159.936 472 251.936 420.001 283.936L412.557 262.933C440.644 243.96 429.926 197.385 420.78 175.701C403.893 178.858 384.434 178.129 364.629 172.752Z" fill="#FF4242"/>
<path d="M147.363 172.752C197.906 159.03 231.56 120.228 222.532 86.0865C213.503 51.9446 171.051 32.7524 119.173 50.9329C96.2236 58.9754 65.8971 78.8878 48.1123 114.933C28.3764 154.933 14.3804 252.246 83.6442 302.933L99.4354 262.933C71.3483 243.96 82.0665 197.386 91.2122 175.701C108.099 178.858 127.558 178.129 147.363 172.752Z" fill="#AF2A00"/>
<path d="M148 147.936C177.466 139.936 221.029 102.077 212 67.9355C208.827 55.9362 171.051 32.7524 119.173 50.9329C96.2236 58.9754 65.8971 78.8877 48.1123 114.933C28.3764 154.933 14.3804 252.246 83.6442 302.933L88 279.936C52.3267 251.317 58.0659 200.302 71.1224 166.95C73.7254 160.301 80.8641 156.842 88.0045 156.832C106.327 156.808 132.137 152.242 148 147.936Z" fill="#FF4242"/>
<path fill-rule="evenodd" clip-rule="evenodd" d="M141.644 235.396C112.672 254.71 96 280.515 96 307.936C96 335.356 112.672 361.161 141.644 380.475C170.559 399.752 210.967 411.936 256 411.936C301.033 411.936 341.44 399.752 370.356 380.475C399.328 361.161 416 335.356 416 307.936C416 280.515 399.328 254.71 370.356 235.396C341.44 216.119 301.033 203.936 256 203.936C210.967 203.936 170.559 216.119 141.644 235.396ZM132.768 222.083C164.657 200.824 208.249 187.936 256 187.936C303.751 187.936 347.343 200.824 379.232 222.083C411.064 243.305 432 273.501 432 307.936C432 342.371 411.064 372.566 379.232 393.788C347.343 415.047 303.751 427.936 256 427.936C208.249 427.936 164.657 415.047 132.768 393.788C100.936 372.566 80 342.371 80 307.936C80 273.501 100.936 243.305 132.768 222.083Z" fill="#560000"/>
<path fill-rule="evenodd" clip-rule="evenodd" d="M217.333 88.1564C209.899 60.4124 173.25 41.0949 122.947 58.4929C101.27 65.9901 72.3975 84.6813 55.4852 118.51C46.1349 137.213 37.8732 170.094 40.4905 204.315C43.093 238.343 56.3456 272.851 89.0163 296.447C92.5981 299.034 93.4047 304.035 90.8178 307.616C88.2309 311.198 83.2302 312.005 79.6484 309.418C42.1374 282.326 27.3898 242.835 24.5371 205.535C21.699 168.428 30.5268 132.652 41.174 111.355C60.3028 73.093 92.8871 51.9595 117.717 43.3718C172.545 24.4088 221.925 43.4757 232.788 84.0153C238.27 104.474 230.541 125.383 215.623 142.357C200.661 159.382 177.886 173.266 150.967 180.479C132.314 185.477 113.822 186.699 97.1054 184.584C93.5195 194.527 90.2593 207.715 90.018 220.484C89.7246 236.015 93.8451 248.993 104.77 256.276C108.447 258.727 109.44 263.694 106.989 267.37C104.538 271.046 99.5715 272.04 95.8953 269.589C78.3613 257.9 73.6823 238.103 74.0209 220.182C74.3616 202.151 79.731 184.054 84.6443 172.557C86.1146 169.116 89.7729 167.154 93.4521 167.833C109.306 170.758 127.818 170.117 146.825 165.024C171.119 158.515 191 146.137 203.604 131.795C216.253 117.403 221 101.84 217.333 88.1564Z" fill="#560000"/>
<path fill-rule="evenodd" clip-rule="evenodd" d="M180.442 73.6172C181.148 69.3842 185.067 66.4619 189.326 66.9942L221.326 70.9942C225.71 71.5422 228.82 75.5405 228.272 79.9247C227.723 84.3088 223.725 87.4186 219.341 86.8706L194.962 83.8232L192.224 100.248C191.84 102.555 190.464 104.579 188.46 105.786C186.455 106.993 184.023 107.262 181.803 106.522L166.685 101.482L164.224 116.248C163.498 120.606 159.376 123.55 155.018 122.824L131.018 118.824C126.66 118.097 123.716 113.975 124.442 109.617C125.168 105.259 129.29 102.315 133.648 103.041L149.757 105.726L152.442 89.6172C152.827 87.3094 154.202 85.2856 156.207 84.0787C158.211 82.8719 160.643 82.6031 162.863 83.3429L177.981 88.3823L180.442 73.6172Z" fill="#560000"/>
<path fill-rule="evenodd" clip-rule="evenodd" d="M297.195 88.1318C304.538 60.3625 340.647 41.1263 390.174 58.4828C411.525 65.9652 440.011 84.6362 456.706 118.473C465.938 137.185 474.096 170.082 471.512 204.323C468.941 238.386 455.847 272.897 423.624 296.477C420.058 299.086 419.283 304.092 421.892 307.658C424.501 311.223 429.507 311.998 433.073 309.389C470.114 282.283 484.653 242.793 487.466 205.528C490.266 168.441 481.558 132.682 471.054 111.394C452.18 73.1395 420.013 51.9858 395.465 43.3832C341.236 24.3786 292.44 43.5269 281.727 84.0413C276.329 104.452 283.931 125.334 298.662 142.319C313.435 159.351 335.931 173.251 362.533 180.473C380.92 185.465 399.154 186.695 415.649 184.599C419.183 194.541 422.394 207.719 422.632 220.483C422.923 236.052 418.838 249.036 408.079 256.304C404.418 258.777 403.455 263.75 405.928 267.411C408.401 271.072 413.374 272.036 417.035 269.562C434.363 257.857 438.963 238.068 438.629 220.185C438.294 202.171 432.999 184.085 428.151 172.592C426.689 169.125 423.009 167.146 419.31 167.837C403.697 170.756 385.458 170.118 366.725 165.032C342.784 158.532 323.182 146.169 310.749 131.835C298.274 117.452 293.564 101.863 297.195 88.1318Z" fill="#560000"/>
<path fill-rule="evenodd" clip-rule="evenodd" d="M333.602 73.634C332.903 69.388 328.971 66.4551 324.703 66.9958L293.121 70.9958C288.738 71.551 285.635 75.5544 286.19 79.9376C286.745 84.3209 290.748 87.4242 295.131 86.869L319.065 83.8377L321.761 100.231C322.143 102.548 323.522 104.581 325.535 105.79C327.548 106.999 329.991 107.263 332.215 106.512L346.977 101.526L349.395 116.231C349.741 118.33 350.908 120.206 352.639 121.442C354.371 122.679 356.523 123.175 358.621 122.821L382.307 118.821C386.664 118.085 389.599 113.957 388.864 109.6C388.128 105.244 384 102.308 379.643 103.044L363.879 105.706L361.235 89.634C360.854 87.3169 359.474 85.2843 357.462 84.075C355.449 82.8656 353.006 82.6016 350.782 83.3531L336.02 88.3387L333.602 73.634Z" fill="#560000"/>
<path d="M218.015 239.527C219.731 245.928 214.202 252.972 205.666 255.259C197.131 257.546 188.821 254.21 187.106 247.809C185.391 241.407 190.919 234.364 199.455 232.077C207.99 229.79 216.3 233.125 218.015 239.527Z" fill="#560000"/>
<path d="M291.106 239.527C289.39 245.928 294.919 252.972 303.455 255.259C311.99 257.546 320.3 254.21 322.015 247.809C323.731 241.407 318.202 234.364 309.666 232.077C301.131 229.79 292.821 233.125 291.106 239.527Z" fill="#560000"/>
<path fill-rule="evenodd" clip-rule="evenodd" d="M24 371.936C24 358.681 34.7452 347.936 48 347.936H104V363.936H48C43.5817 363.936 40 367.517 40 371.936V442.939C40 447.908 44.0277 451.936 48.9961 451.936C53.5331 451.936 57.36 448.557 57.9228 444.055L64.0618 394.943C64.5622 390.94 67.9654 387.936 72 387.936H152V403.936H79.0623L73.7992 446.04C72.2356 458.549 61.6022 467.936 48.9961 467.936C35.1911 467.936 24 456.744 24 442.939V371.936Z" fill="#560000"/>
<path fill-rule="evenodd" clip-rule="evenodd" d="M488 371.936C488 358.681 477.255 347.936 464 347.936H408V363.936H464C468.418 363.936 472 367.517 472 371.936V442.939C472 447.908 467.972 451.936 463.004 451.936C458.467 451.936 454.64 448.557 454.077 444.055L447.938 394.943C447.438 390.94 444.035 387.936 440 387.936H360V403.936H432.938L438.201 446.04C439.764 458.549 450.398 467.936 463.004 467.936C476.809 467.936 488 456.744 488 442.939V371.936Z" fill="#560000"/>
</svg>
