<?xml version="1.0" encoding="UTF-8" standalone="no"?> <svg id="flat" xmlns="http://www.w3.org/2000/svg" viewBox="0 0 512 512"><path d="M87.837,350.529l4.212,37.913A200.592,200.592,0,0,0,112,456h0l16-16,4.616,9.233A95.854,95.854,0,0,0,165.18,486.12L168,488l.284-.189a107.336,107.336,0,0,0,36.463-41.305L208,440l.454.908A104.313,104.313,0,0,0,256,488h0a107.329,107.329,0,0,0,48-48h0l3.253,6.506a107.336,107.336,0,0,0,36.463,41.305L344,488l2.82-1.88a95.854,95.854,0,0,0,32.564-36.887L384,440l16,16h0a200.592,200.592,0,0,0,19.951-67.558l4.212-37.913L424,320H88Z" style="fill:#efd66a"/><path d="M424.163,350.529l-.147-27.567A40.84,40.84,0,0,1,404.368,328h0a40.851,40.851,0,0,1-22.659-6.86L380,320H132l-1.71,1.14A40.845,40.845,0,0,1,107.632,328h0a40.84,40.84,0,0,1-19.648-5.038l-.147,27.567,3.634,32.71a57.438,57.438,0,0,0,9.291.761h10.8a57.337,57.337,0,0,0,30.385-8.714h0A205.825,205.825,0,0,1,251.03,344h9.94a205.825,205.825,0,0,1,109.087,31.286h0A57.337,57.337,0,0,0,400.442,384h10.8a57.438,57.438,0,0,0,9.291-.761Z" style="fill:#bc9a0c"/><path d="M400,216l4.918.984A73.149,73.149,0,0,1,456,256h0l6.516,13.031a57.329,57.329,0,0,1,4.34,39.544h0A57.329,57.329,0,0,1,411.238,352h-10.8a57.337,57.337,0,0,1-30.385-8.714h0A205.825,205.825,0,0,0,260.97,312h-9.94a205.825,205.825,0,0,0-109.087,31.286h0A57.337,57.337,0,0,1,111.558,352h-10.8a57.329,57.329,0,0,1-55.618-43.425h0a57.329,57.329,0,0,1,4.34-39.544L56,256h0a73.149,73.149,0,0,1,51.082-39.016L112,216V96l66.505-19L224,64h64l45.5,13L400,96Z" style="fill:#dd1c4b"/><path d="M462.516,269.031,456,256h0a73.149,73.149,0,0,0-51.082-39.016L400,216V96L333.5,77,288,64H224l-5.716,1.633L258.063,77h0a91.7,91.7,0,0,1,66.505,88.167v45.819a6.118,6.118,0,0,0,4.918,6h0A73.149,73.149,0,0,1,380.568,256h0l6.516,13.031a57.332,57.332,0,0,1,4.341,39.543h0a57.259,57.259,0,0,1-23.372,33.483c.669.407,1.339.812,2,1.228h0A57.337,57.337,0,0,0,400.442,352h10.8a57.329,57.329,0,0,0,55.618-43.425h0A57.326,57.326,0,0,0,462.516,269.031Z" style="fill:#af1e4b"/><path d="M400,88h0a64,64,0,0,1,64,64v64a0,0,0,0,1,0,0H400a64,64,0,0,1-64-64v0a64,64,0,0,1,64-64Z" transform="translate(800 304) rotate(-180)" style="fill:#c3e0ed"/><path d="M436.535,99.465A63.688,63.688,0,0,1,448,136h0a64,64,0,0,1-64,64h0a63.688,63.688,0,0,1-36.535-11.465A63.912,63.912,0,0,0,400,216h0a64,64,0,0,0,64-64h0A63.912,63.912,0,0,0,436.535,99.465Z" style="fill:#2993ce"/><path d="M112,88h64a0,0,0,0,1,0,0v64a64,64,0,0,1-64,64h0a64,64,0,0,1-64-64v0a64,64,0,0,1,64-64Z" style="fill:#c3e0ed"/><path d="M160,88v48a64,64,0,0,1-64,64h0a63.688,63.688,0,0,1-36.535-11.465A63.912,63.912,0,0,0,112,216h0a64,64,0,0,0,64-64V88Z" style="fill:#2993ce"/><path d="M392,351.375h0A88.625,88.625,0,0,1,303.375,440h-94.75A88.625,88.625,0,0,1,120,351.375h0V312H392Z" style="fill:#2d7a54"/><path d="M224,256V200a32,32,0,0,1,32-32h0a32,32,0,0,1,32,32v56Z" style="fill:#efd66a"/><path d="M256,168h0a31.9,31.9,0,0,0-12,2.335A32,32,0,0,1,264,200v56h24V200A32,32,0,0,0,256,168Z" style="fill:#bc9a0c"/><path d="M360,337.389h0A70.61,70.61,0,0,1,289.389,408H222.611A70.61,70.61,0,0,1,152,337.389h0V312H360Z" style="fill:#c3e0ed"/><path d="M342.667,333.158h0A58.843,58.843,0,0,1,283.825,392h-55.65a58.843,58.843,0,0,1-58.842-58.842h0V312H342.667Z" style="fill:#89103c"/><path d="M279.913,312.873,273.769,368.1A17.879,17.879,0,0,1,256,384h0a17.879,17.879,0,0,1-17.769-15.9l-6.144-55.225L256,296Z" style="fill:#ef263f"/><path d="M224,248H200a24,24,0,0,1-24-24h0a24,24,0,0,1,24-24h24Z" style="fill:#feac4f"/><path d="M288,200h24a24,24,0,0,1,24,24h0a24,24,0,0,1-24,24H288Z" style="fill:#feac4f"/><path d="M144,130.315V152a32,32,0,0,1-32,32h0a32,32,0,0,1-32-32h0a32,32,0,0,1,32-32h12.038Z" style="fill:#0a4566"/><circle cx="256" cy="104" r="32" style="fill:#c3e0ed"/><path d="M256,72a32.066,32.066,0,0,0-8,1.008,32.011,32.011,0,0,1,0,61.984A32,32,0,1,0,256,72Z" style="fill:#2993ce"/><rect x="112" y="123.971" width="32" height="32" rx="16" style="fill:#66af8d"/><rect x="240" y="104" width="32" height="32" rx="16" style="fill:#2d7a54"/><path d="M368,130.313V152a32,32,0,0,0,32,32h0a32,32,0,0,0,32-32h0a32,32,0,0,0-32-32H387.959Z" style="fill:#0a4566"/><rect x="368" y="123.971" width="32" height="32" rx="16" transform="translate(768 279.942) rotate(180)" style="fill:#66af8d"/><path d="M288,64h0a131.927,131.927,0,0,1-64,0h0l10.058-25.144A23.632,23.632,0,0,1,256,24h0a23.632,23.632,0,0,1,21.942,14.856Z" style="fill:#f6e597"/><path d="M277.942,38.856a23.618,23.618,0,0,0-35.4-10.642,23.622,23.622,0,0,1,19.4,14.7L271.58,67.01A131.955,131.955,0,0,0,288,64h0Z" style="fill:#efd66a"/><rect x="288" y="216" width="24" height="16" style="fill:#d68029"/><rect x="200" y="216" width="24" height="16" style="fill:#d68029"/><path d="M411.238,352h-10.8a57.337,57.337,0,0,1-30.385-8.714h0A205.825,205.825,0,0,0,260.97,312h-9.94a205.825,205.825,0,0,0-109.087,31.286h0A57.337,57.337,0,0,1,111.558,352h-10.8a57.329,57.329,0,0,1-55.618-43.425h0a57.329,57.329,0,0,1,4.34-39.544L56,256l19.736,24.67a40.85,40.85,0,0,0,31.9,15.33h0a40.845,40.845,0,0,0,22.658-6.86l8.459-5.639A211.371,211.371,0,0,1,256,248h0a211.371,211.371,0,0,1,117.251,35.5l8.459,5.639A40.845,40.845,0,0,0,404.368,296h0a40.85,40.85,0,0,0,31.9-15.33L456,256l6.516,13.031a57.329,57.329,0,0,1,4.34,39.544h0A57.329,57.329,0,0,1,411.238,352Z" style="fill:#f6e597"/><path d="M466.856,292.574h0A57.329,57.329,0,0,1,411.238,336h-10.8a57.337,57.337,0,0,1-30.385-8.714h0A205.825,205.825,0,0,0,260.97,296h-9.94a205.825,205.825,0,0,0-109.087,31.286h0A57.337,57.337,0,0,1,111.558,336h-10.8a57.329,57.329,0,0,1-55.618-43.425h0a57.248,57.248,0,0,1-1.139-5.908,57.293,57.293,0,0,0,1.139,21.908h0A57.329,57.329,0,0,0,100.762,352h10.8a57.337,57.337,0,0,0,30.385-8.714h0A205.825,205.825,0,0,1,251.03,312h9.94a205.825,205.825,0,0,1,109.087,31.286h0A57.337,57.337,0,0,0,400.442,352h10.8a57.329,57.329,0,0,0,55.618-43.425h0A57.293,57.293,0,0,0,468,286.666,57.248,57.248,0,0,1,466.856,292.574Z" style="fill:#efd66a"/><path d="M300.733,181.367h0a311.031,311.031,0,0,1,172.64-87.483l3.36-.517-6.666-13.333A72.424,72.424,0,0,0,414.275,40.56h0a72.412,72.412,0,0,0-47.365,10.448h0a206.908,206.908,0,0,0-67.763,69.006l-4.949,8.249a43.47,43.47,0,0,0,6.537,53.1Z" style="fill:#f6e597"/><path d="M470.067,80.034A72.424,72.424,0,0,0,414.275,40.56h0a72.4,72.4,0,0,0-20.976.45,72.417,72.417,0,0,1,52.77,39.024l6.666,13.333-3.36.517a311.028,311.028,0,0,0-157.924,73.707,43.384,43.384,0,0,0,9.284,13.776h0a311.031,311.031,0,0,1,172.64-87.483l3.36-.517Z" style="fill:#efd66a"/><path d="M465.538,48a22.513,22.513,0,0,0-21.792,17.014L440,80,424.509,69.673A20.91,20.91,0,0,0,392,87.071V104l-11.148-3.716A21.921,21.921,0,0,0,352,121.08v18.891l.052-.019A311.007,311.007,0,0,1,473.373,93.884l3.36-.517,5.12-6.074A26.114,26.114,0,0,0,488,70.462,22.463,22.463,0,0,0,465.538,48Z" style="fill:#dd1c4b"/><path d="M211.267,181.367h0A311.031,311.031,0,0,0,38.627,93.884l-3.36-.517,6.666-13.333A72.424,72.424,0,0,1,97.725,40.56h0a72.412,72.412,0,0,1,47.365,10.448h0a206.908,206.908,0,0,1,67.763,69.006l4.949,8.249a43.47,43.47,0,0,1-6.537,53.1Z" style="fill:#f6e597"/><path d="M217.8,128.263l-4.949-8.249a206.908,206.908,0,0,0-67.763-69.006h0A72.412,72.412,0,0,0,97.727,40.56h0c-1.014.127-2.02.282-3.022.45a72.427,72.427,0,0,1,26.389,10h0a206.908,206.908,0,0,1,67.763,69.006l4.949,8.249a43.467,43.467,0,0,1,2.747,39.328q7.559,6.637,14.716,13.776h0A43.47,43.47,0,0,0,217.8,128.263Z" style="fill:#efd66a"/><path d="M153.58,105.58h0a21.918,21.918,0,0,0-22.432-5.3L120,104V87.071a20.91,20.91,0,0,0-32.509-17.4L72,80,68.254,65.014A22.513,22.513,0,0,0,46.462,48h0A22.463,22.463,0,0,0,24,70.462a26.114,26.114,0,0,0,6.147,16.831l5.12,6.074,3.36.517a311.023,311.023,0,0,1,121.324,46.07l.049.018V121.08A21.917,21.917,0,0,0,153.58,105.58Z" style="fill:#dd1c4b"/></svg>