<?xml version="1.0" encoding="UTF-8" standalone="no"?> <svg width="48" height="48" viewBox="0 0 48 48" fill="none" xmlns="http://www.w3.org/2000/svg">
<path d="M24 46C36.1503 46 46 36.1503 46 24C46 11.8497 36.1503 2 24 2C11.8497 2 2 11.8497 2 24C2 36.1503 11.8497 46 24 46Z" fill="#F87600"/>
<path d="M28.19 40.762C23.9727 40.7662 19.8524 39.4963 16.3691 37.1188C12.8859 34.7412 10.2021 31.3669 8.66936 27.4379C7.13666 23.5089 6.82658 19.2086 7.77975 15.1004C8.73291 10.9922 10.9049 7.2677 14.011 4.41501C10.9181 5.98989 8.242 8.27449 6.20141 11.082C4.16082 13.8895 2.81375 17.1401 2.27036 20.568C1.72698 23.996 2.00271 27.5038 3.07501 30.8048C4.14732 34.1057 5.98573 37.1059 8.43991 39.5601C10.8941 42.0143 13.8943 43.8527 17.1953 44.925C20.4962 45.9973 24.0041 46.273 27.432 45.7296C30.8599 45.1863 34.1105 43.8392 36.918 41.7986C39.7255 39.758 42.0101 37.0819 43.585 33.989C41.6289 36.1239 39.2501 37.8285 36.5998 38.9945C33.9494 40.1605 31.0855 40.7624 28.19 40.762V40.762Z" fill="#E55C00"/>
<path d="M38.14 14.058C39.2124 12.7392 40.0736 11.2619 40.693 9.679C40.1968 9.10129 39.6711 8.54955 39.118 8.026L38.969 8.58C38.4346 10.1505 37.6073 11.6056 36.531 12.868C34.727 15.309 32.7 18.056 32.453 23H25V2.025C24.668 2.01 24.335 2 24 2C23.665 2 23.332 2.01 23 2.025V23H15.547C15.304 18.056 13.273 15.309 11.469 12.868C10.3927 11.6056 9.56543 10.1505 9.031 8.58L8.882 8.026C8.32893 8.54955 7.80323 9.10129 7.307 9.679C7.9264 11.2619 8.78764 12.7392 9.86 14.058C11.554 16.347 13.28 18.735 13.523 23H2.025C2.01 23.332 2 23.665 2 24C2 24.335 2.01 24.668 2.025 25H13.525C13.282 29.265 11.556 31.653 9.862 33.943C8.78909 35.2611 7.92779 36.7381 7.309 38.321C7.80523 38.8987 8.33093 39.4504 8.884 39.974L9.033 39.421C9.56744 37.8504 10.3943 36.3951 11.47 35.132C13.27 32.691 15.306 29.945 15.549 25H23V45.975C23.332 45.99 23.665 46 24 46C24.335 46 24.668 45.99 25 45.975V25H32.453C32.696 29.945 34.727 32.691 36.532 35.132C37.6077 36.3951 38.4346 37.8504 38.969 39.421L39.118 39.974C39.6711 39.4504 40.1968 38.8987 40.693 38.321C40.0742 36.7381 39.2129 35.2611 38.14 33.943C36.446 31.653 34.72 29.265 34.477 25H45.977C45.992 24.668 46.002 24.335 46.002 24C46.002 23.665 45.992 23.332 45.977 23H34.477C34.72 18.735 36.446 16.347 38.14 14.058Z" fill="#2D4A60"/>
<path d="M38.969 39.421L39.118 39.974C39.6711 39.4504 40.1968 38.8987 40.693 38.321C40.5341 37.868 40.344 37.4266 40.124 37C39.58 37.38 39.0183 37.7347 38.439 38.064C38.659 38.4982 38.8365 38.9526 38.969 39.421V39.421Z" fill="#263F52"/>
<path d="M7.506 23H2.025C2.01 23.332 2 23.665 2 24C2 24.335 2.01 24.668 2.025 25H7.913C7.745 24.3453 7.60933 23.6787 7.506 23Z" fill="#263F52"/>
<path d="M9.031 39.421C9.56543 37.8504 10.3923 36.3951 11.468 35.132C11.814 34.665 12.168 34.179 12.513 33.677C12.0463 33.1517 11.609 32.6053 11.201 32.038C10.77 32.702 10.315 33.328 9.86 33.943C8.78709 35.2611 7.92579 36.7381 7.307 38.321C7.80323 38.8987 8.32893 39.4504 8.882 39.974L9.031 39.421Z" fill="#263F52"/>
<path d="M25 45.975V40.494C24.322 40.39 23.6553 40.2543 23 40.087V45.975C23.332 45.99 23.665 46 24 46C24.335 46 24.668 45.99 25 45.975Z" fill="#263F52"/>
<path d="M8.882 8.026C8.32893 8.54955 7.80323 9.10129 7.307 9.679C7.64136 10.6033 8.08697 11.4834 8.634 12.3C8.92773 11.5443 9.2653 10.8064 9.645 10.09C9.38756 9.60977 9.18175 9.10361 9.031 8.58L8.882 8.026Z" fill="#263F52"/>
</svg>
