<?xml version="1.0" encoding="UTF-8" standalone="no"?> <svg xmlns="http://www.w3.org/2000/svg" viewBox="0 0 64 64"><defs><style>.cls-1{fill:#ffb71b;}</style></defs><g id="Layer_22" data-name="Layer 22"><path class="cls-1" d="M35.53,11.52a6.06,6.06,0,0,1,1,.83c.29-1.22.75-3.06,1.4-5.64a2.09,2.09,0,0,0-.35-1,11.85,11.85,0,0,1-2.35,5.56l.29.18Z"/><path class="cls-1" d="M29,13.07l1.6-1.44a32.8,32.8,0,0,1-2.9-6.09c-.25.3-.52.67-.81,1.1C27.61,9.11,28.32,11.27,29,13.07Z"/><path class="cls-1" d="M31.55,11.26a2.47,2.47,0,0,1,1.36.94,5,5,0,0,1,1.19-1.06,13.59,13.59,0,0,0,2.35-4.77c-2.43,0-4.91-.06-7.37,0A25.9,25.9,0,0,0,31.55,11.26Z"/><path class="cls-1" d="M28.68,5.34c2.61,0,5.26,0,7.86,0a2.7,2.7,0,0,0-.12-.71c-5.88-.33-7.51-.07-8,.09C28.53,5,28.61,5.15,28.68,5.34Z"/><path class="cls-1" d="M47.79,10.62a26.6,26.6,0,0,0-9-3.28c0,.12-.07.24-.1.36,2.88.86,5.94,1.85,9.11,2.92Z"/><path class="cls-1" d="M48.32,51.29l.09,0c.44-1.73.43-5,0-9.83a.5.5,0,1,1,1-.09c.42,4.58.45,7.77.08,9.7.61-.11,1.19-.19,1.74-.25-1.14-5.47-1.93-13.61-2.36-24.21a.5.5,0,1,1,1,0c.43,10.64,1.22,18.77,2.37,24.18h.19a262,262,0,0,0-3.14-31.31.5.5,0,0,1,.42-.57.49.49,0,0,1,.57.42,264.89,264.89,0,0,1,3.15,31.47,7.85,7.85,0,0,1,1.85.31,165.86,165.86,0,0,0-1.5-19.43,67.94,67.94,0,0,0-5.35-20,5.43,5.43,0,0,0-.19.57A38.38,38.38,0,0,0,47,29a16.48,16.48,0,0,1-.36,5.38c.54,6.71,1.07,12.1,1.57,16C48.25,50.67,48.29,51,48.32,51.29Z"/><path class="cls-1" d="M34.5,12.08c-1.33.92-2,2.61-2.14,5h0c-.54,13.22-.63,27.42-.28,42.22l.91-.13c-.12-12.08,0-25.56.3-40.07a13.75,13.75,0,0,1,1.3-7Z"/><path class="cls-1" d="M8.72,52.42A14.55,14.55,0,0,0,8.79,55a26.3,26.3,0,0,1,6.68.56c.12-1,.25-1.93.37-2.93A23.53,23.53,0,0,0,8.72,52.42Z"/><path class="cls-1" d="M17.39,17.33a.48.48,0,0,1,0-.17c.1-.5,0-1.81-1-5.16C14,17.21,11.82,24.7,10,34.27c-.31,5.14-.48,9.55-.51,13.11a40.08,40.08,0,0,0-.64,4c.67-.07,1.34-.11,2-.13A66.79,66.79,0,0,1,12.41,37a.5.5,0,0,1,1,.23,66,66,0,0,0-1.56,14l1.12,0A38,38,0,0,0,14.32,32a.5.5,0,0,1,1-.19A39.08,39.08,0,0,1,14,51.39c.67.06,1.34.16,2,.28.52-4.17,1-8.78,1.58-13.73A107.07,107.07,0,0,0,17.39,17.33Z"/><path class="cls-1" d="M52.94,51.73h0a17.92,17.92,0,0,0-4,.45h0l-.5.11a26,26,0,0,1,0,2.9c6.18-.2,6.88-.87,7-1l0-2.08A7.27,7.27,0,0,0,52.94,51.73Z"/><path class="cls-1" d="M26.26,8.06c-.08-.29-.17-.58-.26-.87-6.75,2.22-8.49,3.19-8.93,3.55l0,.1A28.74,28.74,0,0,1,26.26,8.06Z"/><path class="cls-1" d="M43.2,28.19l.21-5.08-2.82.76c.14.14-3.34-.7-3.34-.69v5.14l2.86,1.16Z"/><path class="cls-1" d="M31.08,59.43c-.35-14.84-.26-29.09.28-42.35h0a9.05,9.05,0,0,1,.91-3.91,1.31,1.31,0,0,0-.89-.91l-2.24,2a.51.51,0,0,1-.83-.18C27.75,12.66,27.17,11,26.56,9a27.12,27.12,0,0,0-9.17,2.8c1,3.62,1.09,4.86,1,5.45A108.32,108.32,0,0,1,18.55,38c0,9.84-.28,16-.84,18.71A27.18,27.18,0,0,0,31.08,59.43ZM28.9,29a.49.49,0,0,1-.35.47l-3.49,1.08a.4.4,0,0,1-.15,0l-.14,0L21,29.41a.5.5,0,0,1-.36-.48V20.75a.51.51,0,0,1,.5-.5l7.22-.08a.5.5,0,0,1,.51.5V29Z"/><polygon class="cls-1" points="43.45 22.06 43.51 20.64 37.24 20.79 37.24 22.15 40.45 22.88 43.45 22.06"/><path class="cls-1" d="M34,59.05c6.25-.93,10.34-2,12.2-3.28-.24-3.66-.44-11-.56-21.48v-.06A15.66,15.66,0,0,0,46,29.15a39.54,39.54,0,0,1,1.26-17.21l.12-.4c-3.12-1-6.12-2-9-2.87-.61,2.41-1,4-1.18,4.88a.51.51,0,0,1-.9.19,5.84,5.84,0,0,0-.92-1,12.53,12.53,0,0,0-1.14,6.38v0C34,33.58,33.87,47,34,59.05Zm2.26-36.49V20.31a.48.48,0,0,1,.48-.5L44,19.63a.5.5,0,0,1,.51.52l-.35,8.4a.52.52,0,0,1-.31.44L40.3,30.48a.41.41,0,0,1-.19,0,.63.63,0,0,1-.19,0l-3.36-1.37a.5.5,0,0,1-.31-.47Z"/><path class="cls-1" d="M24.45,24l-2.78-.89v5.48l3.24,1,3-.92V23.22C27.82,23.21,24.39,24.13,24.45,24Z"/><polygon class="cls-1" points="21.67 22.03 24.62 22.98 27.9 22.2 27.9 21.18 21.67 21.25 21.67 22.03"/><path d="M44,19.63l-7.29.18a.48.48,0,0,0-.48.5v8.34a.5.5,0,0,0,.31.47l3.36,1.37a.63.63,0,0,0,.19,0,.41.41,0,0,0,.19,0L43.87,29a.52.52,0,0,0,.31-.44l.35-8.4A.5.5,0,0,0,44,19.63Zm-.82,8.56-3.09,1.29-2.86-1.16V23.18s3.48.83,3.34.69l2.82-.76Zm.25-6.13-3,.82-3.2-.73V20.79l6.26-.15Z"/><path d="M56.27,51.79v-.06A166.14,166.14,0,0,0,54.76,31.5,69.34,69.34,0,0,0,48.9,10.25c-2.45-1.95-5.91-3-10-3.92a4.3,4.3,0,0,0-2-2.65c-7.58-.44-8.82,0-9.23.47a13.35,13.35,0,0,0-1.56,2C17.37,9,16.4,9.89,16.11,10.32c-2.72,5.43-5.33,13.76-7.18,24.29-.29,5-.45,9.27-.47,12.66a38,38,0,0,0-.7,4.61.41.41,0,0,0,0,.11c0,1.58-.23,2.9.31,3.95h0c2.74.2,5.41,0,7.7.76a.52.52,0,0,0,.63-.42c.33-2.52.67-5.23,1-8.11a51.39,51.39,0,0,1-.75,8.72.5.5,0,0,0,.27.57c5.76,2.65,10.93,3.65,16.65,2.66h0c7.08-1,11.47-2.23,13.43-3.71A.5.5,0,0,0,47.2,56c-.12-1.81-.23-4.58-.33-8.28.11,1,.23,2,.34,2.83a13.66,13.66,0,0,1,.16,1.39.06.06,0,0,0,0,0,27.74,27.74,0,0,1-.05,3.72.5.5,0,0,0,.51.54c6.65-.27,8.4-.65,8.46-2.08C56.29,53.35,56.29,52.56,56.27,51.79ZM38.77,7.34a26.6,26.6,0,0,1,9,3.28h0c-3.17-1.07-6.23-2.06-9.11-2.92C38.7,7.58,38.73,7.46,38.77,7.34ZM37.54,5.75a2.09,2.09,0,0,1,.35,1c-.65,2.58-1.11,4.42-1.4,5.64a6.06,6.06,0,0,0-1-.83l-.05,0-.29-.18A11.85,11.85,0,0,0,37.54,5.75ZM34.1,11.14a5,5,0,0,0-1.19,1.06,2.47,2.47,0,0,0-1.36-.94,25.9,25.9,0,0,1-2.47-4.93c2.46,0,4.94,0,7.37,0A13.59,13.59,0,0,1,34.1,11.14Zm2.32-6.48a2.7,2.7,0,0,1,.12.71c-2.6,0-5.25-.06-7.86,0-.07-.19-.15-.39-.22-.59C28.91,4.59,30.54,4.33,36.42,4.66Zm-8.73.88a32.8,32.8,0,0,0,2.9,6.09L29,13.07c-.67-1.8-1.38-4-2.11-6.43C27.17,6.21,27.44,5.84,27.69,5.54ZM26,7.19c.09.29.18.58.26.87a28.74,28.74,0,0,0-9.16,2.78l0-.1C17.51,10.38,19.25,9.41,26,7.19ZM15.47,55.6A26.3,26.3,0,0,0,8.79,55a14.55,14.55,0,0,1-.07-2.62,23.53,23.53,0,0,1,7.12.25C15.72,53.67,15.59,54.65,15.47,55.6Zm.5-3.93c-.66-.12-1.33-.22-2-.28a39.08,39.08,0,0,0,1.33-19.6.5.5,0,0,0-1,.19A38,38,0,0,1,12.94,51.3l-1.12,0a66,66,0,0,1,1.56-14,.5.5,0,0,0-1-.23,66.79,66.79,0,0,0-1.59,14.27c-.67,0-1.34.06-2,.13a40.08,40.08,0,0,1,.64-4c0-3.56.2-8,.51-13.11C11.82,24.7,14,17.21,16.4,12c1,3.35,1.09,4.66,1,5.16a.48.48,0,0,0,0,.17,107.07,107.07,0,0,1,.16,20.61C17,42.89,16.49,47.5,16,51.67Zm15.11,7.76a27.18,27.18,0,0,1-13.37-2.71c.56-2.73.83-8.87.84-18.71a108.32,108.32,0,0,0-.16-20.73c.09-.59,0-1.83-1-5.45A27.12,27.12,0,0,1,26.56,9c.61,1.93,1.19,3.63,1.75,5.08a.51.51,0,0,0,.83.18l2.24-2a1.31,1.31,0,0,1,.89.91,9.05,9.05,0,0,0-.91,3.91h0C30.82,30.34,30.73,44.59,31.08,59.43Zm2.21-40.29c-.32,14.51-.42,28-.3,40.07l-.91.13c-.35-14.8-.26-29,.28-42.22h0c.09-2.43.81-4.12,2.14-5l.09,0A13.75,13.75,0,0,0,33.29,19.14ZM34,59.05c-.12-12,0-25.47.3-39.92v0a12.53,12.53,0,0,1,1.14-6.38,5.84,5.84,0,0,1,.92,1,.51.51,0,0,0,.9-.19c.19-.9.57-2.47,1.18-4.88,2.83.85,5.83,1.82,9,2.87l-.12.4A39.54,39.54,0,0,0,46,29.15a15.66,15.66,0,0,1-.37,5.08v.06c.12,10.5.32,17.82.56,21.48C44.33,57,40.24,58.12,34,59.05ZM48.2,50.38c-.5-3.92-1-9.31-1.57-16A16.48,16.48,0,0,0,47,29,38.38,38.38,0,0,1,48.23,12.2a5.43,5.43,0,0,1,.19-.57,67.94,67.94,0,0,1,5.35,20,165.86,165.86,0,0,1,1.5,19.43,7.85,7.85,0,0,0-1.85-.31,264.89,264.89,0,0,0-3.15-31.47.49.49,0,0,0-.57-.42.5.5,0,0,0-.42.57,262,262,0,0,1,3.14,31.31h-.19c-1.15-5.41-1.94-13.54-2.37-24.18a.5.5,0,1,0-1,0c.43,10.6,1.22,18.74,2.36,24.21-.55.06-1.13.14-1.74.25.37-1.93.34-5.12-.08-9.7a.5.5,0,1,0-1,.09c.43,4.8.44,8.1,0,9.83l-.09,0C48.29,51,48.25,50.67,48.2,50.38Zm.16,4.82a26,26,0,0,0,0-2.9l.5-.11h0a17.92,17.92,0,0,1,4-.45h0a7.27,7.27,0,0,1,2.35.38l0,2.08C55.24,54.33,54.54,55,48.36,55.2Z"/><path d="M28.9,22.58V20.67a.5.5,0,0,0-.51-.5l-7.22.08a.51.51,0,0,0-.5.5v8.18a.5.5,0,0,0,.36.48l3.74,1.13.14,0a.4.4,0,0,0,.15,0l3.49-1.08A.49.49,0,0,0,28.9,29Zm-1,6-3,.92-3.24-1V23.08l2.78.89c-.06.16,3.37-.76,3.45-.75Zm0-6.42L24.62,23,21.67,22v-.78l6.23-.08Z"/></g></svg>