<?xml version="1.0" encoding="UTF-8" standalone="no"?> <svg width="64" height="64" viewBox="0 0 64 64" fill="none" xmlns="http://www.w3.org/2000/svg">
<path d="M27 39V50H57C57.5299 49.9984 58.0377 49.7872 58.4125 49.4125C58.7872 49.0377 58.9984 48.5299 59 48V39H27Z" fill="#FF5023"/>
<path d="M25 22H6.85C6.34629 22.0011 5.86154 22.1922 5.49262 22.5352C5.1237 22.8782 4.89778 23.3477 4.86 23.85L4.69 26L4.08 34L4 35V50H27V24C26.9984 23.4701 26.7872 22.9623 26.4125 22.5875C26.0377 22.2128 25.5299 22.0016 25 22V22Z" fill="#FF5023"/>
<path d="M41 48C40.9982 48.6821 41.1166 49.3591 41.35 50H4V44H42.54C41.546 45.0947 40.9968 46.5213 41 48V48Z" fill="#E64820"/>
<path d="M59 44V48C58.9984 48.5299 58.7872 49.0377 58.4125 49.4125C58.0377 49.7872 57.5299 49.9984 57 50H52.65C52.8834 49.3591 53.0018 48.6821 53 48C53.0032 46.5213 52.454 45.0947 51.46 44H59Z" fill="#E64820"/>
<path d="M9 47V49C9 49.2652 8.89464 49.5196 8.70711 49.7071C8.51957 49.8946 8.26522 50 8 50H4C3.73478 50 3.48043 49.8946 3.29289 49.7071C3.10536 49.5196 3 49.2652 3 49V47C3 46.7348 3.10536 46.4804 3.29289 46.2929C3.48043 46.1054 3.73478 46 4 46H8C8.26522 46 8.51957 46.1054 8.70711 46.2929C8.89464 46.4804 9 46.7348 9 47Z" fill="#CD2A00"/>
<path d="M56 44C56 43.7348 56.1054 43.4804 56.2929 43.2929C56.4804 43.1054 56.7348 43 57 43H59V47H57C56.7348 47 56.4804 46.8946 56.2929 46.7071C56.1054 46.5196 56 46.2652 56 46V44Z" fill="#E6E7E8"/>
<path d="M4 37C4.79565 37 5.55871 37.3161 6.12132 37.8787C6.68393 38.4413 7 39.2044 7 40C7 40.7956 6.68393 41.5587 6.12132 42.1213C5.55871 42.6839 4.79565 43 4 43V37Z" fill="#E6E7E8"/>
<path d="M27 26V34H24C23.4701 33.9984 22.9623 33.7872 22.5875 33.4125C22.2128 33.0377 22.0016 32.5299 22 32V28C22.0016 27.4701 22.2128 26.9623 22.5875 26.5875C22.9623 26.2128 23.4701 26.0016 24 26H27Z" fill="#E6E7E8"/>
<path d="M16 26H14C12.8954 26 12 26.8954 12 28V32C12 33.1046 12.8954 34 14 34H16C17.1046 34 18 33.1046 18 32V28C18 26.8954 17.1046 26 16 26Z" fill="#E6E7E8"/>
<path d="M7.99999 28V32C7.9984 32.5299 7.78718 33.0377 7.41245 33.4125C7.03772 33.7872 6.52993 33.9984 5.99999 34H4.07999L4.38999 30L4.68999 26H5.99999C6.52993 26.0016 7.03772 26.2128 7.41245 26.5875C7.78718 26.9623 7.9984 27.4701 7.99999 28Z" fill="#E6E7E8"/>
<path d="M13 20V22H7V20C7 19.2044 7.31607 18.4413 7.87868 17.8787C8.44129 17.3161 9.20435 17 10 17C10.7956 17 11.5587 17.3161 12.1213 17.8787C12.6839 18.4413 13 19.2044 13 20Z" fill="#FF9811"/>
<path d="M50.58 19L49.88 18.12L49.79 18C49.6957 17.8807 49.5757 17.7844 49.4389 17.7181C49.302 17.6519 49.152 17.6175 49 17.6175C48.848 17.6175 48.6979 17.6519 48.5611 17.7181C48.4243 17.7844 48.3043 17.8807 48.21 18L48.12 18.12L47.43 19L40.36 28H57.64L50.58 19Z" fill="#CD2A00"/>
<path d="M39 25V28H31V25C31 24.7348 31.1054 24.4804 31.2929 24.2929C31.4804 24.1054 31.7348 24 32 24H38C38.2652 24 38.5196 24.1054 38.7071 24.2929C38.8946 24.4804 39 24.7348 39 25Z" fill="#CD2A00"/>
<path d="M51 39V28H58C58.2652 28 58.5196 28.1054 58.7071 28.2929C58.8946 28.4804 59 28.7348 59 29V39H51Z" fill="#E61B23"/>
<path d="M35 39V28H37.36H39H40.36H43V39H35Z" fill="#E61B23"/>
<path d="M35 28V39H27V34V28H31H35Z" fill="#ED1C24"/>
<path d="M51 28H43V39H51V28Z" fill="#ED1C24"/>
<path d="M60 13H20C19.7345 13 19.4796 13.1041 19.29 13.29L24.29 18.29C24.4788 18.4774 24.734 18.5825 25 18.5825C25.266 18.5825 25.5212 18.4774 25.71 18.29L30.29 13.71C30.4796 13.5241 30.7345 13.4199 31 13.4199C31.2655 13.4199 31.5204 13.5241 31.71 13.71L36.29 18.29C36.4796 18.4759 36.7345 18.5801 37 18.5801C37.2655 18.5801 37.5204 18.4759 37.71 18.29L42.29 13.71C42.4796 13.5241 42.7345 13.4199 43 13.4199C43.2655 13.4199 43.5204 13.5241 43.71 13.71L48.12 18.12L48.21 18C48.3043 17.8807 48.4243 17.7844 48.5611 17.7181C48.698 17.6519 48.848 17.6175 49 17.6175C49.152 17.6175 49.3021 17.6519 49.4389 17.7181C49.5757 17.7844 49.6957 17.8807 49.79 18L49.88 18.12L54.29 13.71C54.4788 13.5226 54.734 13.4175 55 13.4175C55.266 13.4175 55.5212 13.5226 55.71 13.71L60.71 18.71C60.8959 18.5204 61 18.2655 61 18V14C61 13.7348 60.8947 13.4804 60.7071 13.2929C60.5196 13.1054 60.2652 13 60 13Z" fill="#CC181F"/>
<path d="M55.71 13.71C55.5212 13.5226 55.266 13.4175 55 13.4175C54.734 13.4175 54.4788 13.5226 54.29 13.71L49.88 18.12L50.58 19H60C60.2655 19 60.5204 18.8959 60.71 18.71L55.71 13.71Z" fill="#ED1C24"/>
<path d="M43 13.42C42.7343 13.4192 42.4792 13.5235 42.29 13.71L37.71 18.29C37.5204 18.4759 37.2655 18.5801 37 18.5801C36.7345 18.5801 36.4796 18.4759 36.29 18.29L31.71 13.71C31.5204 13.5241 31.2655 13.42 31 13.42C30.7345 13.42 30.4796 13.5241 30.29 13.71L25.71 18.29C25.5212 18.4774 25.266 18.5825 25 18.5825C24.734 18.5825 24.4788 18.4774 24.29 18.29L19.29 13.29C19.1041 13.4796 19 13.7345 19 14V18C19 18.2652 19.1054 18.5196 19.2929 18.7071C19.4804 18.8947 19.7348 19 20 19H47.43L48.12 18.12L43.71 13.71C43.5208 13.5235 43.2657 13.4192 43 13.42Z" fill="#ED1C24"/>
<path d="M25 48C25.0018 48.6821 24.8833 49.3591 24.65 50C24.2382 51.1696 23.4735 52.1826 22.4615 52.8992C21.4495 53.6158 20.24 54.0006 19 54.0006C17.76 54.0006 16.5505 53.6158 15.5385 52.8992C14.5265 52.1826 13.7618 51.1696 13.35 50C13.1166 49.3591 12.9982 48.6821 13 48C13 46.4087 13.6321 44.8826 14.7574 43.7574C15.8826 42.6321 17.4087 42 19 42C20.5913 42 22.1174 42.6321 23.2426 43.7574C24.3679 44.8826 25 46.4087 25 48V48Z" fill="#57565C"/>
<path d="M53 48C53.0018 48.6821 52.8833 49.3591 52.65 50C52.2382 51.1696 51.4735 52.1826 50.4615 52.8992C49.4495 53.6158 48.24 54.0006 47 54.0006C45.76 54.0006 44.5505 53.6158 43.5385 52.8992C42.5265 52.1826 41.7618 51.1696 41.35 50C41.1166 49.3591 40.9982 48.6821 41 48C41 46.4087 41.6321 44.8826 42.7573 43.7574C43.8826 42.6321 45.4087 42 47 42C48.5913 42 50.1174 42.6321 51.2426 43.7574C52.3679 44.8826 53 46.4087 53 48V48Z" fill="#57565C"/>
<path d="M19 50C20.1046 50 21 49.1046 21 48C21 46.8954 20.1046 46 19 46C17.8954 46 17 46.8954 17 48C17 49.1046 17.8954 50 19 50Z" fill="#3E3D42"/>
<path d="M47 50C48.1046 50 49 49.1046 49 48C49 46.8954 48.1046 46 47 46C45.8954 46 45 46.8954 45 48C45 49.1046 45.8954 50 47 50Z" fill="#3E3D42"/>
<path d="M4.38999 30H7.99999V32C7.9984 32.5299 7.78718 33.0377 7.41245 33.4125C7.03772 33.7872 6.52993 33.9984 5.99999 34H4.07999L4.38999 30Z" fill="#D8D7DA"/>
<path d="M12 30H18V32C17.9984 32.5299 17.7872 33.0377 17.4125 33.4125C17.0377 33.7872 16.5299 33.9984 16 34H14C13.4701 33.9984 12.9623 33.7872 12.5875 33.4125C12.2128 33.0377 12.0016 32.5299 12 32V30Z" fill="#D8D7DA"/>
<path d="M27 30V34H24C23.4701 33.9984 22.9623 33.7872 22.5875 33.4125C22.2128 33.0377 22.0016 32.5299 22 32V30H27Z" fill="#D8D7DA"/>
<path d="M29 39H27V50H29V39Z" fill="#E64820"/>
<path d="M19 45C18.4067 45 17.8266 45.1759 17.3333 45.5056C16.8399 45.8352 16.4554 46.3038 16.2284 46.852C16.0013 47.4001 15.9419 48.0033 16.0576 48.5853C16.1734 49.1672 16.4591 49.7018 16.8787 50.1213C17.2982 50.5409 17.8328 50.8266 18.4147 50.9424C18.9967 51.0581 19.5999 50.9987 20.1481 50.7716C20.6962 50.5446 21.1648 50.1601 21.4944 49.6667C21.8241 49.1734 22 48.5933 22 48C22 47.2044 21.6839 46.4413 21.1213 45.8787C20.5587 45.3161 19.7957 45 19 45ZM19 49C18.8022 49 18.6089 48.9414 18.4444 48.8315C18.28 48.7216 18.1518 48.5654 18.0761 48.3827C18.0004 48.2 17.9806 47.9989 18.0192 47.8049C18.0578 47.6109 18.153 47.4327 18.2929 47.2929C18.4327 47.153 18.6109 47.0578 18.8049 47.0192C18.9989 46.9806 19.2 47.0004 19.3827 47.0761C19.5654 47.1518 19.7216 47.28 19.8315 47.4444C19.9414 47.6089 20 47.8022 20 48C20 48.2652 19.8946 48.5196 19.7071 48.7071C19.5196 48.8946 19.2652 49 19 49Z" fill="black"/>
<path d="M47 45C46.4067 45 45.8266 45.1759 45.3333 45.5056C44.8399 45.8352 44.4554 46.3038 44.2284 46.852C44.0013 47.4001 43.9419 48.0033 44.0576 48.5853C44.1734 49.1672 44.4591 49.7018 44.8787 50.1213C45.2982 50.5409 45.8328 50.8266 46.4147 50.9424C46.9967 51.0581 47.5999 50.9987 48.148 50.7716C48.6962 50.5446 49.1648 50.1601 49.4944 49.6667C49.8241 49.1734 50 48.5933 50 48C50 47.2044 49.6839 46.4413 49.1213 45.8787C48.5587 45.3161 47.7957 45 47 45V45ZM47 49C46.8022 49 46.6089 48.9414 46.4444 48.8315C46.28 48.7216 46.1518 48.5654 46.0761 48.3827C46.0004 48.2 45.9806 47.9989 46.0192 47.8049C46.0578 47.6109 46.153 47.4327 46.2929 47.2929C46.4327 47.153 46.6109 47.0578 46.8049 47.0192C46.9989 46.9806 47.2 47.0004 47.3827 47.0761C47.5654 47.1518 47.7216 47.28 47.8315 47.4444C47.9414 47.6089 48 47.8022 48 48C48 48.2652 47.8946 48.5196 47.7071 48.7071C47.5196 48.8946 47.2652 49 47 49Z" fill="black"/>
<path d="M60 12H20C19.4701 12.0016 18.9623 12.2128 18.5875 12.5875C18.2128 12.9623 18.0016 13.4701 18 14V18C18.0016 18.5299 18.2128 19.0377 18.5875 19.4125C18.9623 19.7872 19.4701 19.9984 20 20H45.37L40 26.84V25C39.9984 24.4701 39.7872 23.9623 39.4125 23.5875C39.0377 23.2128 38.5299 23.0016 38 23H32C31.4701 23.0016 30.9623 23.2128 30.5875 23.5875C30.2128 23.9623 30.0016 24.4701 30 25V27H28V24C27.9976 23.2051 27.6808 22.4434 27.1187 21.8813C26.5566 21.3192 25.7949 21.0024 25 21H14V20C14 18.9391 13.5786 17.9217 12.8284 17.1716C12.0783 16.4214 11.0609 16 10 16C8.93913 16 7.92172 16.4214 7.17157 17.1716C6.42143 17.9217 6 18.9391 6 20V21.14C5.42008 21.3121 4.9056 21.6553 4.5238 22.1245C4.142 22.5937 3.91065 23.1672 3.86 23.77L3 35V45.28C2.69772 45.4545 2.44638 45.7051 2.27095 46.0068C2.09552 46.3086 2.00211 46.651 2 47V49C2.00158 49.5299 2.2128 50.0377 2.58753 50.4125C2.96227 50.7872 3.47005 50.9984 4 51H12.69C13.2544 52.1963 14.1473 53.2075 15.2645 53.9158C16.3817 54.624 17.6772 55 19 55C20.3228 55 21.6183 54.624 22.7355 53.9158C23.8527 53.2075 24.7456 52.1963 25.31 51H40.69C41.2544 52.1963 42.1473 53.2075 43.2645 53.9158C44.3817 54.624 45.6772 55 47 55C48.3228 55 49.6183 54.624 50.7355 53.9158C51.8527 53.2075 52.7456 52.1963 53.31 51H57C57.7949 50.9976 58.5566 50.6808 59.1187 50.1187C59.6808 49.5566 59.9976 48.7949 60 48V29C59.9987 28.4947 59.8062 28.0086 59.4611 27.6394C59.1161 27.2702 58.6441 27.0454 58.14 27.01L52.63 20H60C60.5299 19.9984 61.0377 19.7872 61.4125 19.4125C61.7872 19.0377 61.9984 18.5299 62 18V14C61.9984 13.4701 61.7872 12.9623 61.4125 12.5875C61.0377 12.2128 60.5299 12.0016 60 12V12ZM8 20C8.00158 19.4701 8.2128 18.9623 8.58753 18.5875C8.96227 18.2128 9.47005 18.0016 10 18C10.5292 18.0039 11.0357 18.2159 11.4099 18.5901C11.7841 18.9643 11.9961 19.4708 12 20V21H8V20ZM5.62 27H6C6.26522 27 6.51957 27.1054 6.70711 27.2929C6.89464 27.4804 7 27.7348 7 28V32C7 32.2652 6.89464 32.5196 6.70711 32.7071C6.51957 32.8946 6.26522 33 6 33H5.16L5.62 27ZM5 38.28C5.30374 38.4528 5.55629 38.703 5.73198 39.0052C5.90766 39.3073 6.0002 39.6505 6.0002 40C6.0002 40.3495 5.90766 40.6927 5.73198 40.9948C5.55629 41.297 5.30374 41.5472 5 41.72V38.28ZM8 49H4V47H8V49ZM19 53C18.0111 53 17.0444 52.7068 16.2221 52.1573C15.3999 51.6079 14.759 50.827 14.3806 49.9134C14.0022 48.9998 13.9031 47.9945 14.0961 47.0245C14.289 46.0546 14.7652 45.1637 15.4645 44.4645C16.1637 43.7652 17.0546 43.289 18.0245 43.0961C18.9945 42.9031 19.9998 43.0022 20.9134 43.3806C21.827 43.759 22.6079 44.3999 23.1573 45.2221C23.7068 46.0444 24 47.0111 24 48C24 48.6566 23.8707 49.3068 23.6194 49.9134C23.3681 50.52 22.9998 51.0712 22.5355 51.5355C22.0712 51.9998 21.52 52.3681 20.9134 52.6194C20.3068 52.8707 19.6566 53 19 53V53ZM26 33H24C23.7348 33 23.4804 32.8946 23.2929 32.7071C23.1054 32.5196 23 32.2652 23 32V28C23 27.7348 23.1054 27.4804 23.2929 27.2929C23.4804 27.1054 23.7348 27 24 27H26V33ZM26 25H24C23.2051 25.0024 22.4434 25.3192 21.8813 25.8813C21.3192 26.4434 21.0024 27.2051 21 28V32C21.0024 32.7949 21.3192 33.5566 21.8813 34.1187C22.4434 34.6808 23.2051 34.9976 24 35H26V49H25.92C25.9719 48.6692 25.9986 48.3349 26 48C26 46.1435 25.2625 44.363 23.9497 43.0503C22.637 41.7375 20.8565 41 19 41C17.1435 41 15.363 41.7375 14.0503 43.0503C12.7375 44.363 12 46.1435 12 48C12.0014 48.3349 12.0281 48.6692 12.08 49H10V47C9.99842 46.4701 9.7872 45.9623 9.41247 45.5875C9.03773 45.2128 8.52995 45.0016 8 45H5V43.86C5.85807 43.6417 6.61893 43.1436 7.16236 42.4446C7.70579 41.7456 8.00081 40.8854 8.00081 40C8.00081 39.1146 7.70579 38.2544 7.16236 37.5554C6.61893 36.8564 5.85807 36.3583 5 36.14V35H6C6.79492 34.9976 7.5566 34.6808 8.1187 34.1187C8.68079 33.5566 8.99763 32.7949 9 32V28C8.99763 27.2051 8.68079 26.4434 8.1187 25.8813C7.5566 25.3192 6.79492 25.0024 6 25H5.77L5.86 23.93C5.87459 23.6777 5.98539 23.4406 6.16958 23.2676C6.35376 23.0946 6.5973 22.9988 6.85 23H25C25.2652 23 25.5196 23.1054 25.7071 23.2929C25.8946 23.4804 26 23.7348 26 24V25ZM52.59 14L49.78 16.81C49.2793 16.6097 48.7207 16.6097 48.22 16.81L45.41 14H52.59ZM20 18V15.41L22.59 18H20ZM21.41 14H28.58L25 17.58L21.41 14ZM27.42 18L31 14.42L34.59 18H27.42ZM33.41 14H40.58L37 17.58L33.41 14ZM39.42 18L43 14.42L46.59 18H39.42ZM42 29V38H36V29H42ZM32 25H38V27H32V25ZM28 29H34V38H28V29ZM47 53C46.0111 53 45.0444 52.7068 44.2221 52.1573C43.3999 51.6079 42.759 50.827 42.3806 49.9134C42.0022 48.9998 41.9031 47.9945 42.0961 47.0245C42.289 46.0546 42.7652 45.1637 43.4645 44.4645C44.1637 43.7652 45.0546 43.289 46.0245 43.0961C46.9945 42.9031 47.9998 43.0022 48.9134 43.3806C49.827 43.759 50.6079 44.3999 51.1573 45.2221C51.7068 46.0444 52 47.0111 52 48C52 49.3261 51.4732 50.5979 50.5355 51.5355C49.5979 52.4732 48.3261 53 47 53V53ZM58 46H57V44H58V46ZM58 42H57C56.4701 42.0016 55.9623 42.2128 55.5875 42.5875C55.2128 42.9623 55.0016 43.4701 55 44V46C55.0016 46.5299 55.2128 47.0377 55.5875 47.4125C55.9623 47.7872 56.4701 47.9984 57 48H58C58 48.2652 57.8946 48.5196 57.7071 48.7071C57.5196 48.8946 57.2652 49 57 49H53.92C53.9719 48.6692 53.9986 48.3349 54 48C54 46.1435 53.2625 44.363 51.9497 43.0503C50.637 41.7375 48.8565 41 47 41C45.1435 41 43.363 41.7375 42.0503 43.0503C40.7375 44.363 40 46.1435 40 48C40.0014 48.3349 40.0281 48.6692 40.08 49H28V40H58V42ZM44 38V29H50V38H44ZM58 38H52V29H58V38ZM55.58 27H42.42L49 18.62L55.58 27ZM51.42 18L55 14.42L58.59 18H51.42ZM60 16.59L57.41 14H60V16.59Z" fill="black"/>
<path d="M16 25H14C13.2044 25 12.4413 25.3161 11.8787 25.8787C11.3161 26.4413 11 27.2044 11 28V32C11 32.7956 11.3161 33.5587 11.8787 34.1213C12.4413 34.6839 13.2044 35 14 35H16C16.7956 35 17.5587 34.6839 18.1213 34.1213C18.6839 33.5587 19 32.7956 19 32V28C19 27.2044 18.6839 26.4413 18.1213 25.8787C17.5587 25.3161 16.7956 25 16 25ZM17 32C17 32.2652 16.8946 32.5196 16.7071 32.7071C16.5196 32.8946 16.2652 33 16 33H14C13.7348 33 13.4804 32.8946 13.2929 32.7071C13.1054 32.5196 13 32.2652 13 32V28C13 27.7348 13.1054 27.4804 13.2929 27.2929C13.4804 27.1054 13.7348 27 14 27H16C16.2652 27 16.5196 27.1054 16.7071 27.2929C16.8946 27.4804 17 27.7348 17 28V32Z" fill="black"/>
<path d="M19 37H16V39H19V37Z" fill="black"/>
<path d="M32 31H30V33H32V31Z" fill="black"/>
<path d="M40 31H38V33H40V31Z" fill="black"/>
<path d="M48 31H46V33H48V31Z" fill="black"/>
<path d="M56 31H54V33H56V31Z" fill="black"/>
<path d="M39 42H30V44H39V42Z" fill="black"/>
<path d="M38 45H30V47H38V45Z" fill="black"/>
<path d="M49 26C50.1046 26 51 25.1046 51 24C51 22.8954 50.1046 22 49 22C47.8954 22 47 22.8954 47 24C47 25.1046 47.8954 26 49 26Z" fill="black"/>
<path d="M11 11H9V14H11V11Z" fill="black"/>
<path d="M4.34389 12.9293L2.92935 14.3432L5.05019 16.465L6.46473 15.0511L4.34389 12.9293Z" fill="black"/>
<path d="M15.6568 12.9297L13.5354 15.0511L14.9496 16.4653L17.071 14.3439L15.6568 12.9297Z" fill="black"/>
</svg>
